<svg xmlns="http://www.w3.org/2000/svg" width="29" height="27" viewBox="0 0 29 27" fill="none">
<path d="M25.356 8.09375L25.2565 8.41725L22.6186 16.993L22.6186 16.9933C22.5732 17.1403 22.4818 17.2688 22.358 17.36C22.2341 17.4512 22.0842 17.5003 21.9304 17.5M25.356 8.09375L21.9309 17.25M25.356 8.09375H25.0176H7.49102H7.15956L7.25064 8.41244L9.69869 16.9788L9.6987 16.9789C9.74168 17.1292 9.83246 17.2613 9.9573 17.3554C10.0821 17.4494 10.2342 17.5002 10.3905 17.5M25.356 8.09375L10.3902 17.25M21.9304 17.5L21.9309 17.25M21.9304 17.5H21.9309V17.25M21.9304 17.5H10.3905M21.9309 17.25H10.3902M10.3905 17.5L10.3902 17.25M10.3905 17.5H10.3902V17.25M25.0176 8.34375L24.9407 8.59375H25.0176V8.34375ZM25.0176 8.34375L24.7786 8.27025L24.756 8.34375H25.0176ZM7.49102 8.34375L7.73139 8.27506L7.75102 8.34375H7.49102ZM7.49102 8.34375V8.59375H7.56246L7.49102 8.34375ZM28.0271 7.27763L28.0271 7.27766L24.829 17.6722L24.8288 17.673C24.6402 18.2938 24.2565 18.8372 23.7346 19.2226C23.2128 19.608 22.5805 19.8149 21.9318 19.8125H21.9309L10.391 19.8125C10.3909 19.8125 10.3907 19.8125 10.3905 19.8125C9.73211 19.8102 9.09219 19.5948 8.56654 19.1983C8.0408 18.8018 7.65769 18.2457 7.47459 17.6132C7.47457 17.6131 7.47454 17.613 7.47452 17.6129L3.46812 3.58758L3.41632 3.40625H3.22773H2.07812C1.77147 3.40625 1.47737 3.28443 1.26053 3.06759C1.04369 2.85075 0.921875 2.55666 0.921875 2.25C0.921875 1.94334 1.04369 1.64925 1.26053 1.43241C1.47737 1.21557 1.77147 1.09375 2.07812 1.09375H3.58007C4.03486 1.09524 4.47691 1.2441 4.83996 1.51804C5.20302 1.79199 5.46749 2.17625 5.59371 2.61319C5.59374 2.61329 5.59377 2.61339 5.59379 2.61349L6.44792 5.59999L6.49976 5.78125H6.68828H26.9219C27.1028 5.78124 27.2813 5.82369 27.4428 5.90521C27.6044 5.98672 27.7446 6.10501 27.8521 6.25057C27.9596 6.39613 28.0314 6.56489 28.0618 6.74327C28.0922 6.92165 28.0803 7.10468 28.0271 7.27763ZM12.1406 23.8125C12.1406 24.2266 12.0178 24.6314 11.7878 24.9757C11.5577 25.32 11.2307 25.5884 10.8481 25.7469C10.4655 25.9053 10.0446 25.9468 9.6384 25.866C9.23226 25.7852 8.85919 25.5858 8.56637 25.293C8.27355 25.0002 8.07414 24.6271 7.99336 24.221C7.91257 23.8148 7.95403 23.3938 8.1125 23.0113C8.27097 22.6287 8.53933 22.3017 8.88365 22.0716C9.22797 21.8415 9.63277 21.7188 10.0469 21.7188C10.6022 21.7188 11.1347 21.9393 11.5274 22.332C11.92 22.7246 12.1406 23.2572 12.1406 23.8125ZM21.0711 22.0716C21.4155 21.8415 21.8203 21.7188 22.2344 21.7188C22.7897 21.7188 23.3222 21.9393 23.7149 22.332C24.1075 22.7246 24.3281 23.2572 24.3281 23.8125C24.3281 24.2266 24.2053 24.6314 23.9753 24.9757C23.7452 25.32 23.4182 25.5884 23.0356 25.7469C22.653 25.9053 22.2321 25.9468 21.8259 25.866C21.4198 25.7852 21.0467 25.5858 20.7539 25.293C20.4611 25.0002 20.2616 24.6271 20.1809 24.221C20.1001 23.8148 20.1415 23.3938 20.3 23.0113C20.4585 22.6287 20.7268 22.3017 21.0711 22.0716Z" fill="#5A7794" stroke="white" stroke-width="0.5"/>
</svg>