<svg width="15" height="16" viewBox="0 0 15 16" fill="none" xmlns="http://www.w3.org/2000/svg">
<circle cx="7.33057" cy="8.02393" r="7.33057" fill="white"/>
<path fill-rule="evenodd" clip-rule="evenodd" d="M11.6757 5.13672C11.6757 5.13672 9.8909 5.90008 11.1044 7.03403C12.3161 8.16621 12.9335 9.24165 12.8741 9.48813C12.8191 9.73283 11.6499 11.0007 12.3214 10.9014C12.9965 10.8029 13.4941 9.47306 13.6015 8.68399C13.707 7.89492 12.7818 6.34426 12.7437 6.22191C12.7118 6.0969 12.1032 5.15002 11.6757 5.13672Z" fill="#999999"/>
<path fill-rule="evenodd" clip-rule="evenodd" d="M2.64952 3.67886C2.41001 4.87044 3.30151 6.6924 5.19715 7.13569C7.0919 7.57899 6.27759 7.21017 5.98308 6.61881C5.68681 6.02745 5.95204 5.58415 6.41064 5.43698C6.87014 5.28891 6.75394 5.69675 7.4352 4.84562C7.60729 3.07243 6.12945 4.82168 5.9822 4.08314C7.44584 2.38354 5.30271 1.74253 4.68088 1.96418C4.05905 2.18583 2.88902 2.48639 2.64952 3.67886Z" fill="#999999"/>
<path fill-rule="evenodd" clip-rule="evenodd" d="M6.12885 9.49025C6.01874 9.53906 5.5055 9.85945 5.32879 10.0813C5.15209 10.3032 5.07484 10.7718 5.32879 10.9688C5.58275 11.1667 5.31459 12.1039 5.9992 12.2761C6.68382 12.4483 7.36933 12.5486 7.39508 13.0899C7.41906 13.6313 7.33115 14.8889 7.00171 15.0132C7.4457 15.259 8.52635 13.9526 8.9064 13.2621C9.28733 12.5725 9.41431 11.5856 9.38856 11.3389C9.36281 11.0931 9.5404 10.5757 9.61677 9.91003C9.69224 9.24441 9.11063 9.20004 9.03515 8.9045C8.9579 8.60807 8.85489 8.28236 6.12885 9.49025Z" fill="#999999"/>
</svg>
