<svg width="15" height="14" viewBox="0 0 15 14" fill="none" xmlns="http://www.w3.org/2000/svg">
<mask id="mask0_1_724" style="mask-type:alpha" maskUnits="userSpaceOnUse" x="0" y="0" width="15" height="14">
<path d="M6.31342 7.82181C7.18394 8.66595 8.23726 9.31767 9.39937 9.7312L10.9715 8.53534C11.0182 8.50466 11.0734 8.48823 11.13 8.48823C11.1866 8.48823 11.2419 8.50466 11.2885 8.53534L14.2076 10.3331C14.3185 10.3968 14.4123 10.4843 14.4817 10.5886C14.551 10.6929 14.5941 10.8111 14.6075 10.9341C14.6208 11.057 14.6041 11.1813 14.5586 11.297C14.5131 11.4127 14.44 11.5167 14.3452 11.6007L12.9774 12.8923C12.7815 13.0773 12.5408 13.2131 12.2766 13.2875C12.0125 13.3619 11.7332 13.3727 11.4636 13.3188C8.77476 12.788 6.29638 11.5447 4.31172 9.7312C2.3711 7.89964 1.02821 5.56914 0.445931 3.02242C0.388409 2.76875 0.400415 2.50518 0.480784 2.25725C0.561152 2.00932 0.707159 1.78545 0.904654 1.60731L2.32253 0.299835C2.41027 0.213648 2.51727 0.147551 2.63552 0.106495C2.75377 0.0654377 2.88021 0.0504844 3.00536 0.0627543C3.13051 0.0750242 3.25114 0.114199 3.35821 0.177346C3.46528 0.240493 3.55602 0.325976 3.62363 0.427393L5.56695 3.18186C5.60047 3.22512 5.61856 3.27752 5.61856 3.33135C5.61856 3.38517 5.60047 3.43758 5.56695 3.48083L4.2867 4.95174C4.73106 6.04035 5.42338 7.02075 6.31342 7.82181Z" fill="black"/>
</mask>
<g mask="url(#mask0_1_724)">
<rect x="-0.552734" y="0.0585938" width="15.9686" height="15.272" fill="white"/>
</g>
</svg>
