<svg width="91" height="24" viewBox="0 0 91 24" fill="none" xmlns="http://www.w3.org/2000/svg">
<path d="M5.24 24V5.696L0.92 8.352V3.552L5.24 0.959999H9.688V24H5.24ZM14.4913 24V0.959999H21.9473C22.1286 0.959999 22.5019 0.965333 23.0673 0.976C23.6326 0.986666 24.1766 1.024 24.6993 1.088C26.5553 1.312 28.1286 1.95733 29.4193 3.024C30.7099 4.09067 31.6913 5.44533 32.3633 7.088C33.0353 8.73067 33.3713 10.528 33.3713 12.48C33.3713 14.432 33.0353 16.2293 32.3633 17.872C31.6913 19.5147 30.7099 20.8693 29.4193 21.936C28.1286 23.0027 26.5553 23.648 24.6993 23.872C24.1766 23.936 23.6326 23.9733 23.0673 23.984C22.5019 23.9947 22.1286 24 21.9473 24H14.4913ZM18.9073 19.904H21.9473C22.2353 19.904 22.6246 19.8987 23.1153 19.888C23.6059 19.8667 24.0486 19.8187 24.4433 19.744C25.4459 19.5413 26.2619 19.072 26.8913 18.336C27.5313 17.6 28.0006 16.7147 28.2993 15.68C28.6086 14.6453 28.7633 13.5787 28.7633 12.48C28.7633 11.328 28.6033 10.2347 28.2833 9.2C27.9739 8.16533 27.4993 7.29067 26.8593 6.576C26.2193 5.86133 25.4139 5.408 24.4433 5.216C24.0486 5.13067 23.6059 5.08267 23.1153 5.072C22.6246 5.06133 22.2353 5.056 21.9473 5.056H18.9073V19.904ZM33.705 24L40.745 0.959999H47.241L54.281 24H49.801L43.529 3.68H44.361L38.185 24H33.705ZM37.929 19.2V15.136H50.089V19.2H37.929ZM59.3065 24V5.024H52.0425V0.959999H70.9225V5.024H63.6585V24H59.3065ZM69.9887 24L77.0287 0.959999H83.5247L90.5647 24H86.0847L79.8127 3.68H80.6447L74.4687 24H69.9887ZM74.2127 19.2V15.136H86.3727V19.2H74.2127Z" fill="#001333"/>
</svg>
