<svg width="60" height="45" viewBox="0 0 60 45" fill="none" xmlns="http://www.w3.org/2000/svg">
<g clip-path="url(#clip0_338_14712)">
<path d="M50.5915 32.4075L47.661 32.3477L47.6489 15.2577C48.0633 15.2577 50.5672 15.2755 50.6073 15.2559C55.3304 15.2559 59.1664 19.1001 59.1664 23.8333C59.1664 28.5702 55.3341 32.4103 50.6073 32.4103L50.5915 32.4075Z" fill="#001333"/>
<path d="M19.0132 12.1447C18.8855 12.4894 18.5033 12.6651 18.1598 12.5375C17.8158 12.4096 17.6406 12.0265 17.7678 11.6823C19.0673 8.17199 21.389 5.25119 24.3194 3.20807C27.2498 1.16496 30.7899 0 34.5262 0C39.4623 0 43.9313 2.00528 47.1656 5.24652C50.3999 8.48775 52.4009 12.9663 52.4009 17.913C52.4009 18.2806 52.1036 18.5786 51.7367 18.5786C51.3699 18.5786 51.0725 18.2806 51.0725 17.913C51.0725 13.334 49.2202 9.18841 46.2259 6.18773C43.2317 3.18705 39.095 1.33078 34.5257 1.33078C31.0658 1.33078 27.7886 2.40932 25.0764 4.30016C22.3645 6.19053 20.2158 8.8946 19.0128 12.1452L19.0132 12.1447Z" fill="#001333"/>
<path d="M52.0872 30.6816C52.2867 34.0924 51.8364 36.8526 50.364 38.8065C48.8715 40.787 46.3839 41.8922 42.5371 41.9459L42.5217 40.6198C45.9122 40.5721 48.0642 39.6519 49.3054 38.0054C50.5667 36.3317 50.9457 33.8594 50.7644 30.7545L52.0876 30.6816H52.0872Z" fill="#001333"/>
<path d="M39.2408 37.6777C41.2548 37.6777 42.8936 39.3201 42.8936 41.3384C42.8936 43.3601 41.2581 44.9991 39.2408 44.9991C37.2277 44.9991 35.5879 43.3563 35.5879 41.3384C35.5879 39.3168 37.2235 37.6777 39.2408 37.6777Z" fill="#001333"/>
<path fill-rule="evenodd" clip-rule="evenodd" d="M0.000221966 15.1924H28.2589V32.4808H20.0894C19.9855 34.048 20.7616 36.7077 23.3759 37.8198C19.5972 37.939 15.7104 35.4348 14.8686 32.4808H-0.000244141V15.1924H0.000221966Z" fill="#001333"/>
<path d="M5.88517 20.3816C5.57567 20.3816 5.32397 20.1299 5.32397 19.8192C5.32397 19.5086 5.57567 19.2568 5.88517 19.2568H22.3737C22.6837 19.2568 22.9354 19.5086 22.9354 19.8192C22.9354 20.1299 22.6837 20.3816 22.3737 20.3816H5.88517Z" fill="#FEFEFE"/>
<path d="M5.88517 24.3777C5.57567 24.3777 5.32397 24.1259 5.32397 23.8153C5.32397 23.5047 5.57567 23.2529 5.88517 23.2529H22.3737C22.6837 23.2529 22.9354 23.5047 22.9354 23.8153C22.9354 24.1259 22.6837 24.3777 22.3737 24.3777H5.88517Z" fill="#FEFEFE"/>
<path d="M5.88517 28.2815C5.57567 28.2815 5.32397 28.0293 5.32397 27.7191C5.32397 27.4085 5.57567 27.1562 5.88517 27.1562H16.2933C16.6033 27.1562 16.855 27.4085 16.855 27.7191C16.855 28.0293 16.6033 28.2815 16.2933 28.2815H5.88517Z" fill="#FEFEFE"/>
</g>
<defs>
<clipPath id="clip0_338_14712">
<rect width="59.1667" height="45" fill="white"/>
</clipPath>
</defs>
</svg>
