<svg width="60" height="46" viewBox="0 0 60 46" fill="none" xmlns="http://www.w3.org/2000/svg">
<path d="M50.5916 32.9078L47.6612 32.848L47.649 15.758C48.0634 15.758 50.5673 15.7758 50.6074 15.7562C55.3305 15.7562 59.1666 19.6004 59.1666 24.3336C59.1666 29.0705 55.3342 32.9106 50.6074 32.9106L50.5916 32.9078Z" fill="#001333"/>
<path d="M19.0134 12.6449C18.8856 12.9896 18.5034 13.1652 18.1599 13.0377C17.8159 12.9097 17.6407 12.5267 17.7679 12.1824C19.0674 8.67213 21.3891 5.75132 24.3195 3.70821C27.2499 1.6651 30.79 0.500137 34.5263 0.500137C39.4624 0.500137 43.9314 2.50542 47.1657 5.74665C50.4001 8.98789 52.4011 13.4665 52.4011 18.4131C52.4011 18.7807 52.1037 19.0787 51.7368 19.0787C51.37 19.0787 51.0726 18.7807 51.0726 18.4131C51.0726 13.8341 49.2203 9.68855 46.2261 6.68787C43.2318 3.68719 39.0951 1.83092 34.5259 1.83092C31.0659 1.83092 27.7888 2.90946 25.0765 4.8003C22.3647 6.69067 20.2159 9.39474 19.0129 12.6453L19.0134 12.6449Z" fill="#001333"/>
<path d="M52.0872 31.1821C52.2867 34.5929 51.8364 37.353 50.364 39.3069C48.8715 41.2875 46.3839 42.3926 42.5371 42.4464L42.5217 41.1202C45.9122 41.0726 48.0642 40.1524 49.3054 38.5059C50.5667 36.8322 50.9457 34.3598 50.7644 31.255L52.0876 31.1821H52.0872Z" fill="#001333"/>
<path d="M39.2409 38.178C41.2549 38.178 42.8938 39.8203 42.8938 41.8387C42.8938 43.8603 41.2582 45.4994 39.2409 45.4994C37.2278 45.4994 35.588 43.8566 35.588 41.8387C35.588 39.8171 37.2236 38.178 39.2409 38.178Z" fill="#001333"/>
<path fill-rule="evenodd" clip-rule="evenodd" d="M0.000344036 15.6929H28.259V32.9813H20.0895C19.9856 34.5485 20.7617 37.2082 23.3761 38.3203C19.5973 38.4394 15.7105 35.9353 14.8687 32.9813H-0.00012207V15.6929H0.000344036Z" fill="#001333"/>
<path d="M5.88517 20.8822C5.57567 20.8822 5.32397 20.6304 5.32397 20.3198C5.32397 20.0092 5.57567 19.7574 5.88517 19.7574H22.3737C22.6837 19.7574 22.9354 20.0092 22.9354 20.3198C22.9354 20.6304 22.6837 20.8822 22.3737 20.8822H5.88517Z" fill="#FEFEFE"/>
<path d="M5.88517 24.8787C5.57567 24.8787 5.32397 24.627 5.32397 24.3163C5.32397 24.0057 5.57567 23.754 5.88517 23.754H22.3737C22.6837 23.754 22.9354 24.0057 22.9354 24.3163C22.9354 24.627 22.6837 24.8787 22.3737 24.8787H5.88517Z" fill="#FEFEFE"/>
<path d="M5.88517 28.7821C5.57567 28.7821 5.32397 28.5299 5.32397 28.2197C5.32397 27.9091 5.57567 27.6569 5.88517 27.6569H16.2933C16.6033 27.6569 16.855 27.9091 16.855 28.2197C16.855 28.5299 16.6033 28.7821 16.2933 28.7821H5.88517Z" fill="#FEFEFE"/>
</svg>
