<svg width="76" height="428" viewBox="0 0 76 428" fill="none" xmlns="http://www.w3.org/2000/svg">
<path d="M56 39L56 384.5" stroke="#CFD8E0"/>
<rect x="36.5" y="0.5" width="39" height="39" fill="white"/>
<path d="M55.7221 26V15.11L53.2831 16.595V14.498L55.7221 13.04H57.6391V26H55.7221Z" fill="#001333"/>
<rect x="36.5" y="0.5" width="39" height="39" stroke="#CFD8E0"/>
<rect x="36.5" y="0.5" width="39" height="39" fill="#001333"/>
<path d="M55.7221 26V15.11L53.2831 16.595V14.498L55.7221 13.04H57.6391V26H55.7221Z" fill="white"/>
<rect x="36.5" y="0.5" width="39" height="39" stroke="white"/>
<rect x="36.5" y="96.5" width="39" height="39" fill="white"/>
<path d="M52.1178 121.991L52.1268 120.317L57.7698 115.259C58.2258 114.857 58.5348 114.473 58.6968 114.107C58.8648 113.741 58.9488 113.375 58.9488 113.009C58.9488 112.547 58.8468 112.133 58.6428 111.767C58.4388 111.395 58.1568 111.101 57.7968 110.885C57.4368 110.669 57.0228 110.561 56.5548 110.561C56.0748 110.561 55.6458 110.675 55.2678 110.903C54.8958 111.125 54.6048 111.422 54.3948 111.794C54.1848 112.166 54.0828 112.568 54.0888 113H52.1628C52.1628 112.16 52.3518 111.425 52.7298 110.795C53.1138 110.159 53.6388 109.664 54.3048 109.31C54.9708 108.95 55.7328 108.77 56.5908 108.77C57.4068 108.77 58.1388 108.956 58.7868 109.328C59.4348 109.694 59.9448 110.198 60.3168 110.84C60.6948 111.482 60.8838 112.214 60.8838 113.036C60.8838 113.63 60.8058 114.134 60.6498 114.548C60.4938 114.962 60.2598 115.346 59.9478 115.7C59.6358 116.054 59.2458 116.438 58.7778 116.852L54.4218 120.74L54.2148 120.2H60.8838V121.991H52.1178Z" fill="#001333"/>
<rect x="36.5" y="96.5" width="39" height="39" stroke="#CFD8E0"/>
<g clip-path="url(#clip0_2_2014)">
<path d="M-0.28 121L-0.154 120.412H0.014C0.219333 120.412 0.410667 120.393 0.588 120.356C0.774667 120.309 0.933333 120.216 1.064 120.076C1.204 119.936 1.302 119.731 1.358 119.46L2.842 112.544C2.86067 112.488 2.87467 112.418 2.884 112.334C2.89333 112.25 2.898 112.189 2.898 112.152C2.898 111.909 2.80467 111.755 2.618 111.69C2.43133 111.625 2.18867 111.592 1.89 111.592H1.708L1.834 111.004H5.908L5.782 111.592H5.6C5.39467 111.592 5.19867 111.615 5.012 111.662C4.82533 111.709 4.662 111.802 4.522 111.942C4.39133 112.082 4.29333 112.301 4.228 112.6L2.604 120.3H6.174L7.826 112.544C7.84467 112.488 7.85867 112.418 7.868 112.334C7.87733 112.25 7.882 112.189 7.882 112.152C7.882 111.909 7.78867 111.755 7.602 111.69C7.41533 111.625 7.17267 111.592 6.874 111.592H6.692L6.818 111.004H10.892L10.766 111.592H10.584C10.3787 111.592 10.1827 111.615 9.996 111.662C9.81867 111.699 9.66467 111.783 9.534 111.914C9.40333 112.045 9.30533 112.25 9.24 112.53L7.574 120.3H11.158L12.81 112.544C12.8287 112.488 12.8427 112.418 12.852 112.334C12.8613 112.25 12.866 112.189 12.866 112.152C12.866 111.909 12.7727 111.755 12.586 111.69C12.3993 111.625 12.1567 111.592 11.858 111.592H11.676L11.802 111.004H15.876L15.75 111.592H15.568C15.3627 111.592 15.1667 111.615 14.98 111.662C14.8027 111.699 14.6487 111.783 14.518 111.914C14.3873 112.045 14.2893 112.25 14.224 112.53L12.74 119.46C12.7307 119.516 12.7167 119.586 12.698 119.67C12.6887 119.745 12.684 119.805 12.684 119.852C12.684 120.085 12.7773 120.239 12.964 120.314C13.16 120.379 13.4027 120.412 13.692 120.412H13.874L13.748 121H-0.28ZM17.5154 121.14C17.1048 121.14 16.7641 121.028 16.4934 120.804C16.2228 120.58 16.0221 120.277 15.8914 119.894C15.7701 119.502 15.7094 119.063 15.7094 118.578C15.7094 118.139 15.7654 117.682 15.8774 117.206C15.9988 116.721 16.1761 116.254 16.4094 115.806C16.6428 115.349 16.9274 114.938 17.2634 114.574C17.5994 114.201 17.9868 113.907 18.4254 113.692C18.8641 113.468 19.3494 113.356 19.8814 113.356C20.1054 113.356 20.3154 113.379 20.5114 113.426C20.7168 113.463 20.9034 113.519 21.0714 113.594C21.2488 113.669 21.3981 113.757 21.5194 113.86L22.1354 113.51H22.5834L21.6314 117.99C21.6128 118.093 21.5848 118.242 21.5474 118.438C21.5101 118.634 21.4774 118.835 21.4494 119.04C21.4308 119.245 21.4214 119.413 21.4214 119.544C21.4214 119.777 21.4588 119.955 21.5334 120.076C21.6174 120.197 21.7341 120.258 21.8834 120.258C22.0421 120.258 22.2054 120.225 22.3734 120.16C22.5414 120.085 22.7141 119.997 22.8914 119.894L23.1434 120.3C23.0128 120.421 22.8354 120.547 22.6114 120.678C22.3874 120.809 22.1494 120.916 21.8974 121C21.6454 121.093 21.4028 121.14 21.1694 121.14C20.8334 121.14 20.5674 121.037 20.3714 120.832C20.1754 120.627 20.0774 120.342 20.0774 119.978C20.0774 119.791 20.0868 119.623 20.1054 119.474C20.1334 119.315 20.1708 119.119 20.2174 118.886H20.1334C19.9188 119.362 19.6761 119.768 19.4054 120.104C19.1441 120.44 18.8548 120.697 18.5374 120.874C18.2294 121.051 17.8888 121.14 17.5154 121.14ZM18.0194 120.258C18.2621 120.258 18.5094 120.165 18.7614 119.978C19.0228 119.791 19.2654 119.539 19.4894 119.222C19.7228 118.905 19.9281 118.55 20.1054 118.158C20.2828 117.766 20.4134 117.369 20.4974 116.968L21.0154 114.49C20.9128 114.322 20.7634 114.196 20.5674 114.112C20.3714 114.028 20.1661 113.986 19.9514 113.986C19.5781 113.986 19.2421 114.093 18.9434 114.308C18.6448 114.513 18.3834 114.789 18.1594 115.134C17.9354 115.479 17.7441 115.857 17.5854 116.268C17.4361 116.679 17.3241 117.094 17.2494 117.514C17.1748 117.925 17.1374 118.298 17.1374 118.634C17.1374 119.213 17.2214 119.628 17.3894 119.88C17.5574 120.132 17.7674 120.258 18.0194 120.258ZM26.2948 121.14C25.4455 121.14 24.8015 120.967 24.3628 120.622C23.9335 120.277 23.7188 119.824 23.7188 119.264C23.7188 118.909 23.7888 118.611 23.9288 118.368C24.0688 118.116 24.2648 117.901 24.5168 117.724C24.7782 117.537 25.0768 117.374 25.4128 117.234C25.7488 117.094 26.1128 116.949 26.5048 116.8C26.8595 116.669 27.1582 116.534 27.4008 116.394C27.6435 116.254 27.8302 116.091 27.9608 115.904C28.0915 115.717 28.1568 115.489 28.1568 115.218C28.1568 115.041 28.1195 114.882 28.0448 114.742C27.9795 114.593 27.8628 114.476 27.6948 114.392C27.5268 114.299 27.2935 114.252 26.9948 114.252C26.5655 114.252 26.1828 114.341 25.8468 114.518C25.5108 114.686 25.2635 114.882 25.1048 115.106C25.0675 115.078 25.0395 115.031 25.0208 114.966C25.0022 114.901 24.9928 114.831 24.9928 114.756C24.9928 114.541 25.0488 114.327 25.1608 114.112C25.2822 113.897 25.5062 113.72 25.8328 113.58C26.1595 113.44 26.6308 113.37 27.2468 113.37C27.7508 113.37 28.1802 113.44 28.5348 113.58C28.8895 113.72 29.1555 113.911 29.3328 114.154C29.5195 114.397 29.6128 114.677 29.6128 114.994C29.6128 115.358 29.5335 115.661 29.3748 115.904C29.2255 116.147 29.0202 116.347 28.7588 116.506C28.5068 116.665 28.2222 116.805 27.9048 116.926C27.5968 117.038 27.2842 117.155 26.9668 117.276C26.5748 117.425 26.2435 117.584 25.9728 117.752C25.7115 117.911 25.5108 118.097 25.3708 118.312C25.2402 118.527 25.1748 118.802 25.1748 119.138C25.1748 119.474 25.2868 119.749 25.5108 119.964C25.7348 120.169 26.0802 120.272 26.5468 120.272C26.8642 120.272 27.1582 120.225 27.4288 120.132C27.6995 120.029 27.9375 119.899 28.1428 119.74C28.3575 119.581 28.5208 119.423 28.6328 119.264C28.6702 119.292 28.7028 119.348 28.7308 119.432C28.7682 119.516 28.7868 119.609 28.7868 119.712C28.7868 119.945 28.7122 120.174 28.5628 120.398C28.4228 120.613 28.1708 120.79 27.8068 120.93C27.4428 121.07 26.9388 121.14 26.2948 121.14Z" fill="#5A7794"/>
<rect x="36.5" y="96.5" width="39" height="39" fill="#001333"/>
<path d="M52.1178 121.991L52.1268 120.317L57.7698 115.259C58.2258 114.857 58.5348 114.473 58.6968 114.107C58.8648 113.741 58.9488 113.375 58.9488 113.009C58.9488 112.547 58.8468 112.133 58.6428 111.767C58.4388 111.395 58.1568 111.101 57.7968 110.885C57.4368 110.669 57.0228 110.561 56.5548 110.561C56.0748 110.561 55.6458 110.675 55.2678 110.903C54.8958 111.125 54.6048 111.422 54.3948 111.794C54.1848 112.166 54.0828 112.568 54.0888 113H52.1628C52.1628 112.16 52.3518 111.425 52.7298 110.795C53.1138 110.159 53.6388 109.664 54.3048 109.31C54.9708 108.95 55.7328 108.77 56.5908 108.77C57.4068 108.77 58.1388 108.956 58.7868 109.328C59.4348 109.694 59.9448 110.198 60.3168 110.84C60.6948 111.482 60.8838 112.214 60.8838 113.036C60.8838 113.63 60.8058 114.134 60.6498 114.548C60.4938 114.962 60.2598 115.346 59.9478 115.7C59.6358 116.054 59.2458 116.438 58.7778 116.852L54.4218 120.74L54.2148 120.2H60.8838V121.991H52.1178Z" fill="white"/>
<rect x="36.5" y="96.5" width="39" height="39" stroke="white"/>
</g>
<rect x="36.5" y="192.5" width="39" height="39" fill="white"/>
<path d="M56.2366 218.243C55.5946 218.243 54.9916 218.123 54.4276 217.883C53.8636 217.637 53.3746 217.289 52.9606 216.839C52.5526 216.389 52.2556 215.858 52.0696 215.246L53.8876 214.742C54.0616 215.3 54.3646 215.729 54.7966 216.029C55.2286 216.323 55.7086 216.467 56.2366 216.461C56.7106 216.455 57.1276 216.344 57.4876 216.128C57.8476 215.912 58.1296 215.621 58.3336 215.255C58.5376 214.883 58.6396 214.457 58.6396 213.977C58.6396 213.257 58.4146 212.663 57.9646 212.195C57.5206 211.727 56.9386 211.493 56.2186 211.493C56.0146 211.493 55.8046 211.523 55.5886 211.583C55.3786 211.643 55.1806 211.721 54.9946 211.817L54.1126 210.332L58.6846 206.291L58.8826 206.831H52.5826V205.04H60.3766V206.831L56.5786 210.485L56.5606 209.873C57.3766 209.873 58.0846 210.056 58.6846 210.422C59.2846 210.782 59.7466 211.274 60.0706 211.898C60.4006 212.516 60.5656 213.209 60.5656 213.977C60.5656 214.805 60.3706 215.54 59.9806 216.182C59.5966 216.824 59.0776 217.328 58.4236 217.694C57.7756 218.06 57.0466 218.243 56.2366 218.243Z" fill="#001333"/>
<rect x="36.5" y="192.5" width="39" height="39" stroke="#CFD8E0"/>
<rect x="36.5" y="288.5" width="39" height="39" fill="white"/>
<path d="M57.8271 314V311.741H51.9771V309.959L56.1891 301.04H58.3401L54.1281 309.959H57.8271V306.449H59.7351V309.959H61.0221V311.741H59.7351V314H57.8271Z" fill="#001333"/>
<rect x="36.5" y="288.5" width="39" height="39" stroke="#CFD8E0"/>
<rect x="36.5" y="384.5" width="39" height="39" fill="white"/>
<path d="M56.3559 410.27C55.6899 410.27 55.0689 410.135 54.4929 409.865C53.9229 409.589 53.4339 409.211 53.0259 408.731C52.6179 408.245 52.3269 407.687 52.1529 407.057L53.9619 406.571C54.0639 406.955 54.2379 407.288 54.4839 407.57C54.7359 407.852 55.0299 408.071 55.3659 408.227C55.7019 408.377 56.0499 408.452 56.4099 408.452C56.8839 408.452 57.3129 408.338 57.6969 408.11C58.0869 407.882 58.3929 407.576 58.6149 407.192C58.8429 406.808 58.9569 406.385 58.9569 405.923C58.9569 405.449 58.8399 405.02 58.6059 404.636C58.3779 404.252 58.0689 403.949 57.6789 403.727C57.2949 403.499 56.8719 403.385 56.4099 403.385C55.8819 403.385 55.4349 403.49 55.0689 403.7C54.7029 403.91 54.4179 404.153 54.2139 404.429L52.5759 403.853L52.9719 397.04H59.9649V398.813H53.9349L54.6999 398.102L54.3849 403.205L54.0159 402.728C54.3579 402.386 54.7659 402.125 55.2399 401.945C55.7139 401.765 56.1849 401.675 56.6529 401.675C57.4569 401.675 58.1739 401.861 58.8039 402.233C59.4399 402.605 59.9409 403.112 60.3069 403.754C60.6729 404.39 60.8559 405.113 60.8559 405.923C60.8559 406.727 60.6489 407.459 60.2349 408.119C59.8209 408.773 59.2719 409.295 58.5879 409.685C57.9039 410.075 57.1599 410.27 56.3559 410.27Z" fill="#001333"/>
<rect x="36.5" y="384.5" width="39" height="39" stroke="#CFD8E0"/>
<defs>
<clipPath id="clip0_2_2014">
<rect width="76" height="40" fill="white" transform="translate(0 96)"/>
</clipPath>
</defs>
</svg>
