<svg width="76" height="424" viewBox="0 0 76 424" fill="none" xmlns="http://www.w3.org/2000/svg">
<rect x="36.5" y="0.5" width="39" height="39" fill="#001333"/>
<path d="M55.7221 26V15.11L53.2831 16.595V14.498L55.7221 13.04H57.6391V26H55.7221Z" fill="white"/>
<rect x="36.5" y="0.5" width="39" height="39" stroke="white"/>
<rect width="40" height="88" transform="translate(36 40)" fill="white"/>
<path d="M56 40L56 128" stroke="#CFD8E0"/>
<g clip-path="url(#clip0_226_445)">
<path d="M0.216 154C0.168 154 0.144 153.964 0.144 153.892C0.144 153.82 0.168 153.784 0.216 153.784C0.612 153.784 0.912 153.748 1.116 153.676C1.332 153.604 1.488 153.484 1.584 153.316C1.692 153.136 1.776 152.866 1.836 152.506L3.312 144.172C3.36 143.86 3.384 143.668 3.384 143.596C3.384 143.344 3.3 143.176 3.132 143.092C2.964 143.008 2.646 142.966 2.178 142.966C2.142 142.966 2.124 142.93 2.124 142.858C2.136 142.786 2.154 142.75 2.178 142.75L3.024 142.768C3.48 142.792 3.84 142.804 4.104 142.804C4.44 142.804 4.848 142.792 5.328 142.768L6.084 142.75C6.132 142.75 6.15 142.786 6.138 142.858C6.138 142.93 6.12 142.966 6.084 142.966C5.712 142.966 5.43 143.002 5.238 143.074C5.058 143.146 4.92 143.272 4.824 143.452C4.728 143.62 4.65 143.884 4.59 144.244L3.132 152.542C3.072 152.902 3.042 153.136 3.042 153.244C3.042 153.424 3.102 153.532 3.222 153.568C3.342 153.604 3.618 153.622 4.05 153.622H6.3C6.708 153.622 6.996 153.598 7.164 153.55C7.332 153.502 7.446 153.412 7.506 153.28C7.566 153.136 7.632 152.866 7.704 152.47L9.18 144.172C9.228 143.86 9.252 143.668 9.252 143.596C9.252 143.344 9.174 143.176 9.018 143.092C8.862 143.008 8.574 142.966 8.154 142.966C8.106 142.966 8.082 142.93 8.082 142.858C8.082 142.786 8.106 142.75 8.154 142.75C9.162 142.786 9.792 142.804 10.044 142.804C10.32 142.804 10.698 142.792 11.178 142.768L11.97 142.75C12.018 142.75 12.042 142.786 12.042 142.858C12.042 142.93 12.018 142.966 11.97 142.966C11.598 142.966 11.316 143.002 11.124 143.074C10.932 143.146 10.788 143.272 10.692 143.452C10.596 143.62 10.518 143.884 10.458 144.244L9 152.56C8.952 152.764 8.928 152.95 8.928 153.118C8.928 153.358 9 153.502 9.144 153.55C9.288 153.598 9.6 153.622 10.08 153.622H12.186C12.606 153.622 12.894 153.604 13.05 153.568C13.206 153.52 13.314 153.43 13.374 153.298C13.446 153.154 13.518 152.878 13.59 152.47L15.03 144.172C15.078 143.944 15.102 143.74 15.102 143.56C15.102 143.32 15.024 143.164 14.868 143.092C14.724 143.008 14.442 142.966 14.022 142.966C13.974 142.966 13.95 142.93 13.95 142.858C13.95 142.786 13.974 142.75 14.022 142.75L14.832 142.768C15.288 142.792 15.666 142.804 15.966 142.804C16.254 142.804 16.638 142.792 17.118 142.768L17.928 142.75C17.976 142.75 18 142.786 18 142.858C18 142.93 17.976 142.966 17.928 142.966C17.532 142.966 17.232 143.002 17.028 143.074C16.824 143.146 16.668 143.272 16.56 143.452C16.464 143.62 16.386 143.884 16.326 144.244L14.85 152.578C14.814 152.794 14.796 152.974 14.796 153.118C14.796 153.394 14.874 153.574 15.03 153.658C15.198 153.742 15.516 153.784 15.984 153.784C16.032 153.784 16.056 153.82 16.056 153.892C16.056 153.964 16.032 154 15.984 154H0.216ZM24.7828 152.614C24.7948 152.602 24.8128 152.596 24.8368 152.596C24.8728 152.596 24.9028 152.62 24.9268 152.668C24.9508 152.704 24.9508 152.734 24.9268 152.758C24.5308 153.226 24.1708 153.58 23.8468 153.82C23.5228 154.048 23.2108 154.162 22.9108 154.162C22.6708 154.162 22.4908 154.09 22.3708 153.946C22.2628 153.802 22.2088 153.574 22.2088 153.262C22.2088 153.07 22.2388 152.782 22.2988 152.398L22.5868 150.688C22.0708 151.78 21.4768 152.644 20.8048 153.28C20.1328 153.916 19.4788 154.234 18.8428 154.234C18.4828 154.234 18.2008 154.126 17.9968 153.91C17.8048 153.682 17.7088 153.34 17.7088 152.884C17.7088 152.776 17.7208 152.602 17.7448 152.362C17.8648 151.534 18.1828 150.688 18.6988 149.824C19.2268 148.948 19.8448 148.228 20.5528 147.664C21.2608 147.1 21.9268 146.818 22.5508 146.818C23.0548 146.818 23.4628 146.98 23.7748 147.304C24.0028 147.112 24.1588 146.902 24.2428 146.674C24.2668 146.65 24.2908 146.638 24.3148 146.638C24.3508 146.638 24.3868 146.65 24.4228 146.674C24.4588 146.686 24.4708 146.698 24.4588 146.71L23.4148 152.398C23.3788 152.578 23.3608 152.74 23.3608 152.884C23.3608 153.22 23.4628 153.388 23.6668 153.388C23.9188 153.388 24.2908 153.13 24.7828 152.614ZM19.6528 153.208C20.0608 153.208 20.4868 152.998 20.9308 152.578C21.3868 152.158 21.7888 151.63 22.1368 150.994C22.4968 150.358 22.7368 149.746 22.8568 149.158C22.8928 148.99 22.9108 148.828 22.9108 148.672C22.9108 148.324 22.8208 148.048 22.6408 147.844C22.4608 147.64 22.2028 147.538 21.8668 147.538C21.4588 147.538 21.0508 147.706 20.6428 148.042C20.2348 148.366 19.8808 148.816 19.5808 149.392C19.2808 149.968 19.0768 150.616 18.9688 151.336C18.9208 151.72 18.8968 151.972 18.8968 152.092C18.8968 152.836 19.1488 153.208 19.6528 153.208ZM27.2762 154.252C26.8322 154.252 26.4542 154.138 26.1422 153.91C25.8302 153.67 25.6742 153.352 25.6742 152.956C25.6742 152.86 25.6802 152.782 25.6922 152.722C25.7762 152.278 25.9922 151.876 26.3402 151.516C26.7002 151.144 27.1502 150.79 27.6902 150.454C28.2542 150.094 28.6562 149.788 28.8962 149.536C29.1482 149.272 29.3042 148.954 29.3642 148.582C29.3762 148.534 29.3822 148.468 29.3822 148.384C29.3822 148.12 29.3042 147.898 29.1482 147.718C28.9922 147.526 28.7522 147.43 28.4282 147.43C28.0802 147.43 27.7442 147.538 27.4202 147.754C27.1082 147.97 26.7962 148.264 26.4842 148.636L26.4482 148.654C26.4122 148.654 26.3762 148.636 26.3402 148.6C26.3042 148.564 26.2922 148.534 26.3042 148.51C26.7242 147.946 27.1862 147.526 27.6902 147.25C28.2062 146.962 28.7342 146.818 29.2742 146.818C29.6462 146.818 29.9702 146.908 30.2462 147.088C30.5342 147.256 30.6782 147.508 30.6782 147.844C30.6782 147.94 30.6722 148.012 30.6602 148.06C30.5882 148.456 30.4022 148.81 30.1022 149.122C29.8022 149.434 29.4002 149.764 28.8962 150.112C28.2962 150.508 27.8402 150.862 27.5282 151.174C27.2162 151.486 27.0182 151.882 26.9342 152.362C26.9222 152.398 26.9162 152.458 26.9162 152.542C26.9162 152.854 27.0242 153.124 27.2402 153.352C27.4682 153.568 27.7682 153.676 28.1402 153.676C28.7162 153.676 29.3462 153.334 30.0302 152.65C30.0422 152.638 30.0602 152.632 30.0842 152.632C30.1202 152.632 30.1502 152.65 30.1742 152.686C30.2102 152.71 30.2222 152.74 30.2102 152.776C29.8262 153.256 29.3702 153.622 28.8422 153.874C28.3142 154.126 27.7922 154.252 27.2762 154.252Z" fill="#5A7794"/>
<rect x="36.5" y="128.5" width="39" height="39" fill="#001333"/>
<path d="M52.1178 153.991L52.1268 152.317L57.7698 147.259C58.2258 146.857 58.5348 146.473 58.6968 146.107C58.8648 145.741 58.9488 145.375 58.9488 145.009C58.9488 144.547 58.8468 144.133 58.6428 143.767C58.4388 143.395 58.1568 143.101 57.7968 142.885C57.4368 142.669 57.0228 142.561 56.5548 142.561C56.0748 142.561 55.6458 142.675 55.2678 142.903C54.8958 143.125 54.6048 143.422 54.3948 143.794C54.1848 144.166 54.0828 144.568 54.0888 145H52.1628C52.1628 144.16 52.3518 143.425 52.7298 142.795C53.1138 142.159 53.6388 141.664 54.3048 141.31C54.9708 140.95 55.7328 140.77 56.5908 140.77C57.4068 140.77 58.1388 140.956 58.7868 141.328C59.4348 141.694 59.9448 142.198 60.3168 142.84C60.6948 143.482 60.8838 144.214 60.8838 145.036C60.8838 145.63 60.8058 146.134 60.6498 146.548C60.4938 146.962 60.2598 147.346 59.9478 147.7C59.6358 148.054 59.2458 148.438 58.7778 148.852L54.4218 152.74L54.2148 152.2H60.8838V153.991H52.1178Z" fill="white"/>
<rect x="36.5" y="128.5" width="39" height="39" stroke="white"/>
</g>
<rect width="40" height="88" transform="translate(36 168)" fill="white"/>
<path d="M56 168L56 256" stroke="#CFD8E0"/>
<rect x="36.5" y="256.5" width="39" height="39" fill="white"/>
<path d="M56.2366 282.243C55.5946 282.243 54.9916 282.123 54.4276 281.883C53.8636 281.637 53.3746 281.289 52.9606 280.839C52.5526 280.389 52.2556 279.858 52.0696 279.246L53.8876 278.742C54.0616 279.3 54.3646 279.729 54.7966 280.029C55.2286 280.323 55.7086 280.467 56.2366 280.461C56.7106 280.455 57.1276 280.344 57.4876 280.128C57.8476 279.912 58.1296 279.621 58.3336 279.255C58.5376 278.883 58.6396 278.457 58.6396 277.977C58.6396 277.257 58.4146 276.663 57.9646 276.195C57.5206 275.727 56.9386 275.493 56.2186 275.493C56.0146 275.493 55.8046 275.523 55.5886 275.583C55.3786 275.643 55.1806 275.721 54.9946 275.817L54.1126 274.332L58.6846 270.291L58.8826 270.831H52.5826V269.04H60.3766V270.831L56.5786 274.485L56.5606 273.873C57.3766 273.873 58.0846 274.056 58.6846 274.422C59.2846 274.782 59.7466 275.274 60.0706 275.898C60.4006 276.516 60.5656 277.209 60.5656 277.977C60.5656 278.805 60.3706 279.54 59.9806 280.182C59.5966 280.824 59.0776 281.328 58.4236 281.694C57.7756 282.06 57.0466 282.243 56.2366 282.243Z" fill="#001333"/>
<rect x="36.5" y="256.5" width="39" height="39" stroke="#CFD8E0"/>
<rect width="40" height="88" transform="translate(36 296)" fill="white"/>
<path d="M56 296L56 384" stroke="#CFD8E0"/>
<rect x="36.5" y="384.5" width="39" height="39" fill="white"/>
<path d="M57.8271 410V407.741H51.9771V405.959L56.1891 397.04H58.3401L54.1281 405.959H57.8271V402.449H59.7351V405.959H61.0221V407.741H59.7351V410H57.8271Z" fill="#001333"/>
<rect x="36.5" y="384.5" width="39" height="39" stroke="#CFD8E0"/>
<defs>
<clipPath id="clip0_226_445">
<rect width="76" height="40" fill="white" transform="translate(0 128)"/>
</clipPath>
</defs>
</svg>
