<svg width="76" height="424" viewBox="0 0 76 424" fill="none" xmlns="http://www.w3.org/2000/svg">
<g clip-path="url(#clip0_226_2081)">
<path d="M0.216 26C0.168 26 0.144 25.964 0.144 25.892C0.144 25.82 0.168 25.784 0.216 25.784C0.612 25.784 0.912 25.748 1.116 25.676C1.332 25.604 1.488 25.484 1.584 25.316C1.692 25.136 1.776 24.866 1.836 24.506L3.312 16.172C3.36 15.86 3.384 15.668 3.384 15.596C3.384 15.344 3.3 15.176 3.132 15.092C2.964 15.008 2.646 14.966 2.178 14.966C2.142 14.966 2.124 14.93 2.124 14.858C2.136 14.786 2.154 14.75 2.178 14.75L3.024 14.768C3.48 14.792 3.84 14.804 4.104 14.804C4.44 14.804 4.848 14.792 5.328 14.768L6.084 14.75C6.132 14.75 6.15 14.786 6.138 14.858C6.138 14.93 6.12 14.966 6.084 14.966C5.712 14.966 5.43 15.002 5.238 15.074C5.058 15.146 4.92 15.272 4.824 15.452C4.728 15.62 4.65 15.884 4.59 16.244L3.132 24.542C3.072 24.902 3.042 25.136 3.042 25.244C3.042 25.424 3.102 25.532 3.222 25.568C3.342 25.604 3.618 25.622 4.05 25.622H6.3C6.708 25.622 6.996 25.598 7.164 25.55C7.332 25.502 7.446 25.412 7.506 25.28C7.566 25.136 7.632 24.866 7.704 24.47L9.18 16.172C9.228 15.86 9.252 15.668 9.252 15.596C9.252 15.344 9.174 15.176 9.018 15.092C8.862 15.008 8.574 14.966 8.154 14.966C8.106 14.966 8.082 14.93 8.082 14.858C8.082 14.786 8.106 14.75 8.154 14.75C9.162 14.786 9.792 14.804 10.044 14.804C10.32 14.804 10.698 14.792 11.178 14.768L11.97 14.75C12.018 14.75 12.042 14.786 12.042 14.858C12.042 14.93 12.018 14.966 11.97 14.966C11.598 14.966 11.316 15.002 11.124 15.074C10.932 15.146 10.788 15.272 10.692 15.452C10.596 15.62 10.518 15.884 10.458 16.244L9 24.56C8.952 24.764 8.928 24.95 8.928 25.118C8.928 25.358 9 25.502 9.144 25.55C9.288 25.598 9.6 25.622 10.08 25.622H12.186C12.606 25.622 12.894 25.604 13.05 25.568C13.206 25.52 13.314 25.43 13.374 25.298C13.446 25.154 13.518 24.878 13.59 24.47L15.03 16.172C15.078 15.944 15.102 15.74 15.102 15.56C15.102 15.32 15.024 15.164 14.868 15.092C14.724 15.008 14.442 14.966 14.022 14.966C13.974 14.966 13.95 14.93 13.95 14.858C13.95 14.786 13.974 14.75 14.022 14.75L14.832 14.768C15.288 14.792 15.666 14.804 15.966 14.804C16.254 14.804 16.638 14.792 17.118 14.768L17.928 14.75C17.976 14.75 18 14.786 18 14.858C18 14.93 17.976 14.966 17.928 14.966C17.532 14.966 17.232 15.002 17.028 15.074C16.824 15.146 16.668 15.272 16.56 15.452C16.464 15.62 16.386 15.884 16.326 16.244L14.85 24.578C14.814 24.794 14.796 24.974 14.796 25.118C14.796 25.394 14.874 25.574 15.03 25.658C15.198 25.742 15.516 25.784 15.984 25.784C16.032 25.784 16.056 25.82 16.056 25.892C16.056 25.964 16.032 26 15.984 26H0.216ZM24.7828 24.614C24.7948 24.602 24.8128 24.596 24.8368 24.596C24.8728 24.596 24.9028 24.62 24.9268 24.668C24.9508 24.704 24.9508 24.734 24.9268 24.758C24.5308 25.226 24.1708 25.58 23.8468 25.82C23.5228 26.048 23.2108 26.162 22.9108 26.162C22.6708 26.162 22.4908 26.09 22.3708 25.946C22.2628 25.802 22.2088 25.574 22.2088 25.262C22.2088 25.07 22.2388 24.782 22.2988 24.398L22.5868 22.688C22.0708 23.78 21.4768 24.644 20.8048 25.28C20.1328 25.916 19.4788 26.234 18.8428 26.234C18.4828 26.234 18.2008 26.126 17.9968 25.91C17.8048 25.682 17.7088 25.34 17.7088 24.884C17.7088 24.776 17.7208 24.602 17.7448 24.362C17.8648 23.534 18.1828 22.688 18.6988 21.824C19.2268 20.948 19.8448 20.228 20.5528 19.664C21.2608 19.1 21.9268 18.818 22.5508 18.818C23.0548 18.818 23.4628 18.98 23.7748 19.304C24.0028 19.112 24.1588 18.902 24.2428 18.674C24.2668 18.65 24.2908 18.638 24.3148 18.638C24.3508 18.638 24.3868 18.65 24.4228 18.674C24.4588 18.686 24.4708 18.698 24.4588 18.71L23.4148 24.398C23.3788 24.578 23.3608 24.74 23.3608 24.884C23.3608 25.22 23.4628 25.388 23.6668 25.388C23.9188 25.388 24.2908 25.13 24.7828 24.614ZM19.6528 25.208C20.0608 25.208 20.4868 24.998 20.9308 24.578C21.3868 24.158 21.7888 23.63 22.1368 22.994C22.4968 22.358 22.7368 21.746 22.8568 21.158C22.8928 20.99 22.9108 20.828 22.9108 20.672C22.9108 20.324 22.8208 20.048 22.6408 19.844C22.4608 19.64 22.2028 19.538 21.8668 19.538C21.4588 19.538 21.0508 19.706 20.6428 20.042C20.2348 20.366 19.8808 20.816 19.5808 21.392C19.2808 21.968 19.0768 22.616 18.9688 23.336C18.9208 23.72 18.8968 23.972 18.8968 24.092C18.8968 24.836 19.1488 25.208 19.6528 25.208ZM27.2762 26.252C26.8322 26.252 26.4542 26.138 26.1422 25.91C25.8302 25.67 25.6742 25.352 25.6742 24.956C25.6742 24.86 25.6802 24.782 25.6922 24.722C25.7762 24.278 25.9922 23.876 26.3402 23.516C26.7002 23.144 27.1502 22.79 27.6902 22.454C28.2542 22.094 28.6562 21.788 28.8962 21.536C29.1482 21.272 29.3042 20.954 29.3642 20.582C29.3762 20.534 29.3822 20.468 29.3822 20.384C29.3822 20.12 29.3042 19.898 29.1482 19.718C28.9922 19.526 28.7522 19.43 28.4282 19.43C28.0802 19.43 27.7442 19.538 27.4202 19.754C27.1082 19.97 26.7962 20.264 26.4842 20.636L26.4482 20.654C26.4122 20.654 26.3762 20.636 26.3402 20.6C26.3042 20.564 26.2922 20.534 26.3042 20.51C26.7242 19.946 27.1862 19.526 27.6902 19.25C28.2062 18.962 28.7342 18.818 29.2742 18.818C29.6462 18.818 29.9702 18.908 30.2462 19.088C30.5342 19.256 30.6782 19.508 30.6782 19.844C30.6782 19.94 30.6722 20.012 30.6602 20.06C30.5882 20.456 30.4022 20.81 30.1022 21.122C29.8022 21.434 29.4002 21.764 28.8962 22.112C28.2962 22.508 27.8402 22.862 27.5282 23.174C27.2162 23.486 27.0182 23.882 26.9342 24.362C26.9222 24.398 26.9162 24.458 26.9162 24.542C26.9162 24.854 27.0242 25.124 27.2402 25.352C27.4682 25.568 27.7682 25.676 28.1402 25.676C28.7162 25.676 29.3462 25.334 30.0302 24.65C30.0422 24.638 30.0602 24.632 30.0842 24.632C30.1202 24.632 30.1502 24.65 30.1742 24.686C30.2102 24.71 30.2222 24.74 30.2102 24.776C29.8262 25.256 29.3702 25.622 28.8422 25.874C28.3142 26.126 27.7922 26.252 27.2762 26.252Z" fill="#5A7794"/>
<rect x="36.5" y="0.5" width="39" height="39" fill="#001333"/>
<path d="M55.7221 26V15.11L53.2831 16.595V14.498L55.7221 13.04H57.6391V26H55.7221Z" fill="white"/>
<rect x="36.5" y="0.5" width="39" height="39" stroke="white"/>
</g>
<rect width="40" height="88" transform="translate(36 40)" fill="white"/>
<path d="M56 40L56 128" stroke="#CFD8E0"/>
<rect x="36.5" y="128.5" width="39" height="39" fill="white"/>
<path d="M52.1178 153.991L52.1268 152.317L57.7698 147.259C58.2258 146.857 58.5348 146.473 58.6968 146.107C58.8648 145.741 58.9488 145.375 58.9488 145.009C58.9488 144.547 58.8468 144.133 58.6428 143.767C58.4388 143.395 58.1568 143.101 57.7968 142.885C57.4368 142.669 57.0228 142.561 56.5548 142.561C56.0748 142.561 55.6458 142.675 55.2678 142.903C54.8958 143.125 54.6048 143.422 54.3948 143.794C54.1848 144.166 54.0828 144.568 54.0888 145H52.1628C52.1628 144.16 52.3518 143.425 52.7298 142.795C53.1138 142.159 53.6388 141.664 54.3048 141.31C54.9708 140.95 55.7328 140.77 56.5908 140.77C57.4068 140.77 58.1388 140.956 58.7868 141.328C59.4348 141.694 59.9448 142.198 60.3168 142.84C60.6948 143.482 60.8838 144.214 60.8838 145.036C60.8838 145.63 60.8058 146.134 60.6498 146.548C60.4938 146.962 60.2598 147.346 59.9478 147.7C59.6358 148.054 59.2458 148.438 58.7778 148.852L54.4218 152.74L54.2148 152.2H60.8838V153.991H52.1178Z" fill="#001333"/>
<rect x="36.5" y="128.5" width="39" height="39" stroke="#CFD8E0"/>
<rect width="40" height="88" transform="translate(36 168)" fill="white"/>
<path d="M56 168L56 256" stroke="#CFD8E0"/>
<rect x="36.5" y="256.5" width="39" height="39" fill="white"/>
<path d="M56.2366 282.243C55.5946 282.243 54.9916 282.123 54.4276 281.883C53.8636 281.637 53.3746 281.289 52.9606 280.839C52.5526 280.389 52.2556 279.858 52.0696 279.246L53.8876 278.742C54.0616 279.3 54.3646 279.729 54.7966 280.029C55.2286 280.323 55.7086 280.467 56.2366 280.461C56.7106 280.455 57.1276 280.344 57.4876 280.128C57.8476 279.912 58.1296 279.621 58.3336 279.255C58.5376 278.883 58.6396 278.457 58.6396 277.977C58.6396 277.257 58.4146 276.663 57.9646 276.195C57.5206 275.727 56.9386 275.493 56.2186 275.493C56.0146 275.493 55.8046 275.523 55.5886 275.583C55.3786 275.643 55.1806 275.721 54.9946 275.817L54.1126 274.332L58.6846 270.291L58.8826 270.831H52.5826V269.04H60.3766V270.831L56.5786 274.485L56.5606 273.873C57.3766 273.873 58.0846 274.056 58.6846 274.422C59.2846 274.782 59.7466 275.274 60.0706 275.898C60.4006 276.516 60.5656 277.209 60.5656 277.977C60.5656 278.805 60.3706 279.54 59.9806 280.182C59.5966 280.824 59.0776 281.328 58.4236 281.694C57.7756 282.06 57.0466 282.243 56.2366 282.243Z" fill="#001333"/>
<rect x="36.5" y="256.5" width="39" height="39" stroke="#CFD8E0"/>
<rect width="40" height="88" transform="translate(36 296)" fill="white"/>
<path d="M56 296L56 384" stroke="#CFD8E0"/>
<rect x="36.5" y="384.5" width="39" height="39" fill="white"/>
<path d="M57.8271 410V407.741H51.9771V405.959L56.1891 397.04H58.3401L54.1281 405.959H57.8271V402.449H59.7351V405.959H61.0221V407.741H59.7351V410H57.8271Z" fill="#001333"/>
<rect x="36.5" y="384.5" width="39" height="39" stroke="#CFD8E0"/>
<defs>
<clipPath id="clip0_226_2081">
<rect width="76" height="40" fill="white"/>
</clipPath>
</defs>
</svg>
