<svg width="76" height="424" viewBox="0 0 76 424" fill="none" xmlns="http://www.w3.org/2000/svg">
<rect x="36.5" y="0.5" width="39" height="39" fill="#001333"/>
<path d="M55.7221 26V15.11L53.2831 16.595V14.498L55.7221 13.04H57.6391V26H55.7221Z" fill="white"/>
<rect x="36.5" y="0.5" width="39" height="39" stroke="white"/>
<rect width="40" height="88" transform="translate(36 40)" fill="white"/>
<path d="M56 40L56 128" stroke="#CFD8E0"/>
<rect x="36.5" y="128.5" width="39" height="39" fill="#001333"/>
<path d="M52.1178 153.991L52.1268 152.317L57.7698 147.259C58.2258 146.857 58.5348 146.473 58.6968 146.107C58.8648 145.741 58.9488 145.375 58.9488 145.009C58.9488 144.547 58.8468 144.133 58.6428 143.767C58.4388 143.395 58.1568 143.101 57.7968 142.885C57.4368 142.669 57.0228 142.561 56.5548 142.561C56.0748 142.561 55.6458 142.675 55.2678 142.903C54.8958 143.125 54.6048 143.422 54.3948 143.794C54.1848 144.166 54.0828 144.568 54.0888 145H52.1628C52.1628 144.16 52.3518 143.425 52.7298 142.795C53.1138 142.159 53.6388 141.664 54.3048 141.31C54.9708 140.95 55.7328 140.77 56.5908 140.77C57.4068 140.77 58.1388 140.956 58.7868 141.328C59.4348 141.694 59.9448 142.198 60.3168 142.84C60.6948 143.482 60.8838 144.214 60.8838 145.036C60.8838 145.63 60.8058 146.134 60.6498 146.548C60.4938 146.962 60.2598 147.346 59.9478 147.7C59.6358 148.054 59.2458 148.438 58.7778 148.852L54.4218 152.74L54.2148 152.2H60.8838V153.991H52.1178Z" fill="white"/>
<rect x="36.5" y="128.5" width="39" height="39" stroke="white"/>
<rect width="40" height="88" transform="translate(36 168)" fill="white"/>
<path d="M56 168L56 256" stroke="#CFD8E0"/>
<g clip-path="url(#clip0_226_2187)">
<path d="M0.216 282C0.168 282 0.144 281.964 0.144 281.892C0.144 281.82 0.168 281.784 0.216 281.784C0.612 281.784 0.912 281.748 1.116 281.676C1.332 281.604 1.488 281.484 1.584 281.316C1.692 281.136 1.776 280.866 1.836 280.506L3.312 272.172C3.36 271.86 3.384 271.668 3.384 271.596C3.384 271.344 3.3 271.176 3.132 271.092C2.964 271.008 2.646 270.966 2.178 270.966C2.142 270.966 2.124 270.93 2.124 270.858C2.136 270.786 2.154 270.75 2.178 270.75L3.024 270.768C3.48 270.792 3.84 270.804 4.104 270.804C4.44 270.804 4.848 270.792 5.328 270.768L6.084 270.75C6.132 270.75 6.15 270.786 6.138 270.858C6.138 270.93 6.12 270.966 6.084 270.966C5.712 270.966 5.43 271.002 5.238 271.074C5.058 271.146 4.92 271.272 4.824 271.452C4.728 271.62 4.65 271.884 4.59 272.244L3.132 280.542C3.072 280.902 3.042 281.136 3.042 281.244C3.042 281.424 3.102 281.532 3.222 281.568C3.342 281.604 3.618 281.622 4.05 281.622H6.3C6.708 281.622 6.996 281.598 7.164 281.55C7.332 281.502 7.446 281.412 7.506 281.28C7.566 281.136 7.632 280.866 7.704 280.47L9.18 272.172C9.228 271.86 9.252 271.668 9.252 271.596C9.252 271.344 9.174 271.176 9.018 271.092C8.862 271.008 8.574 270.966 8.154 270.966C8.106 270.966 8.082 270.93 8.082 270.858C8.082 270.786 8.106 270.75 8.154 270.75C9.162 270.786 9.792 270.804 10.044 270.804C10.32 270.804 10.698 270.792 11.178 270.768L11.97 270.75C12.018 270.75 12.042 270.786 12.042 270.858C12.042 270.93 12.018 270.966 11.97 270.966C11.598 270.966 11.316 271.002 11.124 271.074C10.932 271.146 10.788 271.272 10.692 271.452C10.596 271.62 10.518 271.884 10.458 272.244L9 280.56C8.952 280.764 8.928 280.95 8.928 281.118C8.928 281.358 9 281.502 9.144 281.55C9.288 281.598 9.6 281.622 10.08 281.622H12.186C12.606 281.622 12.894 281.604 13.05 281.568C13.206 281.52 13.314 281.43 13.374 281.298C13.446 281.154 13.518 280.878 13.59 280.47L15.03 272.172C15.078 271.944 15.102 271.74 15.102 271.56C15.102 271.32 15.024 271.164 14.868 271.092C14.724 271.008 14.442 270.966 14.022 270.966C13.974 270.966 13.95 270.93 13.95 270.858C13.95 270.786 13.974 270.75 14.022 270.75L14.832 270.768C15.288 270.792 15.666 270.804 15.966 270.804C16.254 270.804 16.638 270.792 17.118 270.768L17.928 270.75C17.976 270.75 18 270.786 18 270.858C18 270.93 17.976 270.966 17.928 270.966C17.532 270.966 17.232 271.002 17.028 271.074C16.824 271.146 16.668 271.272 16.56 271.452C16.464 271.62 16.386 271.884 16.326 272.244L14.85 280.578C14.814 280.794 14.796 280.974 14.796 281.118C14.796 281.394 14.874 281.574 15.03 281.658C15.198 281.742 15.516 281.784 15.984 281.784C16.032 281.784 16.056 281.82 16.056 281.892C16.056 281.964 16.032 282 15.984 282H0.216ZM24.7828 280.614C24.7948 280.602 24.8128 280.596 24.8368 280.596C24.8728 280.596 24.9028 280.62 24.9268 280.668C24.9508 280.704 24.9508 280.734 24.9268 280.758C24.5308 281.226 24.1708 281.58 23.8468 281.82C23.5228 282.048 23.2108 282.162 22.9108 282.162C22.6708 282.162 22.4908 282.09 22.3708 281.946C22.2628 281.802 22.2088 281.574 22.2088 281.262C22.2088 281.07 22.2388 280.782 22.2988 280.398L22.5868 278.688C22.0708 279.78 21.4768 280.644 20.8048 281.28C20.1328 281.916 19.4788 282.234 18.8428 282.234C18.4828 282.234 18.2008 282.126 17.9968 281.91C17.8048 281.682 17.7088 281.34 17.7088 280.884C17.7088 280.776 17.7208 280.602 17.7448 280.362C17.8648 279.534 18.1828 278.688 18.6988 277.824C19.2268 276.948 19.8448 276.228 20.5528 275.664C21.2608 275.1 21.9268 274.818 22.5508 274.818C23.0548 274.818 23.4628 274.98 23.7748 275.304C24.0028 275.112 24.1588 274.902 24.2428 274.674C24.2668 274.65 24.2908 274.638 24.3148 274.638C24.3508 274.638 24.3868 274.65 24.4228 274.674C24.4588 274.686 24.4708 274.698 24.4588 274.71L23.4148 280.398C23.3788 280.578 23.3608 280.74 23.3608 280.884C23.3608 281.22 23.4628 281.388 23.6668 281.388C23.9188 281.388 24.2908 281.13 24.7828 280.614ZM19.6528 281.208C20.0608 281.208 20.4868 280.998 20.9308 280.578C21.3868 280.158 21.7888 279.63 22.1368 278.994C22.4968 278.358 22.7368 277.746 22.8568 277.158C22.8928 276.99 22.9108 276.828 22.9108 276.672C22.9108 276.324 22.8208 276.048 22.6408 275.844C22.4608 275.64 22.2028 275.538 21.8668 275.538C21.4588 275.538 21.0508 275.706 20.6428 276.042C20.2348 276.366 19.8808 276.816 19.5808 277.392C19.2808 277.968 19.0768 278.616 18.9688 279.336C18.9208 279.72 18.8968 279.972 18.8968 280.092C18.8968 280.836 19.1488 281.208 19.6528 281.208ZM27.2762 282.252C26.8322 282.252 26.4542 282.138 26.1422 281.91C25.8302 281.67 25.6742 281.352 25.6742 280.956C25.6742 280.86 25.6802 280.782 25.6922 280.722C25.7762 280.278 25.9922 279.876 26.3402 279.516C26.7002 279.144 27.1502 278.79 27.6902 278.454C28.2542 278.094 28.6562 277.788 28.8962 277.536C29.1482 277.272 29.3042 276.954 29.3642 276.582C29.3762 276.534 29.3822 276.468 29.3822 276.384C29.3822 276.12 29.3042 275.898 29.1482 275.718C28.9922 275.526 28.7522 275.43 28.4282 275.43C28.0802 275.43 27.7442 275.538 27.4202 275.754C27.1082 275.97 26.7962 276.264 26.4842 276.636L26.4482 276.654C26.4122 276.654 26.3762 276.636 26.3402 276.6C26.3042 276.564 26.2922 276.534 26.3042 276.51C26.7242 275.946 27.1862 275.526 27.6902 275.25C28.2062 274.962 28.7342 274.818 29.2742 274.818C29.6462 274.818 29.9702 274.908 30.2462 275.088C30.5342 275.256 30.6782 275.508 30.6782 275.844C30.6782 275.94 30.6722 276.012 30.6602 276.06C30.5882 276.456 30.4022 276.81 30.1022 277.122C29.8022 277.434 29.4002 277.764 28.8962 278.112C28.2962 278.508 27.8402 278.862 27.5282 279.174C27.2162 279.486 27.0182 279.882 26.9342 280.362C26.9222 280.398 26.9162 280.458 26.9162 280.542C26.9162 280.854 27.0242 281.124 27.2402 281.352C27.4682 281.568 27.7682 281.676 28.1402 281.676C28.7162 281.676 29.3462 281.334 30.0302 280.65C30.0422 280.638 30.0602 280.632 30.0842 280.632C30.1202 280.632 30.1502 280.65 30.1742 280.686C30.2102 280.71 30.2222 280.74 30.2102 280.776C29.8262 281.256 29.3702 281.622 28.8422 281.874C28.3142 282.126 27.7922 282.252 27.2762 282.252Z" fill="#5A7794"/>
<rect x="36.5" y="256.5" width="39" height="39" fill="#001333"/>
<path d="M56.2366 282.243C55.5946 282.243 54.9916 282.123 54.4276 281.883C53.8636 281.637 53.3746 281.289 52.9606 280.839C52.5526 280.389 52.2556 279.858 52.0696 279.246L53.8876 278.742C54.0616 279.3 54.3646 279.729 54.7966 280.029C55.2286 280.323 55.7086 280.467 56.2366 280.461C56.7106 280.455 57.1276 280.344 57.4876 280.128C57.8476 279.912 58.1296 279.621 58.3336 279.255C58.5376 278.883 58.6396 278.457 58.6396 277.977C58.6396 277.257 58.4146 276.663 57.9646 276.195C57.5206 275.727 56.9386 275.493 56.2186 275.493C56.0146 275.493 55.8046 275.523 55.5886 275.583C55.3786 275.643 55.1806 275.721 54.9946 275.817L54.1126 274.332L58.6846 270.291L58.8826 270.831H52.5826V269.04H60.3766V270.831L56.5786 274.485L56.5606 273.873C57.3766 273.873 58.0846 274.056 58.6846 274.422C59.2846 274.782 59.7466 275.274 60.0706 275.898C60.4006 276.516 60.5656 277.209 60.5656 277.977C60.5656 278.805 60.3706 279.54 59.9806 280.182C59.5966 280.824 59.0776 281.328 58.4236 281.694C57.7756 282.06 57.0466 282.243 56.2366 282.243Z" fill="white"/>
<rect x="36.5" y="256.5" width="39" height="39" stroke="white"/>
</g>
<rect width="40" height="88" transform="translate(36 296)" fill="white"/>
<path d="M56 296L56 384" stroke="#CFD8E0"/>
<rect x="36.5" y="384.5" width="39" height="39" fill="white"/>
<path d="M57.8271 410V407.741H51.9771V405.959L56.1891 397.04H58.3401L54.1281 405.959H57.8271V402.449H59.7351V405.959H61.0221V407.741H59.7351V410H57.8271Z" fill="#001333"/>
<rect x="36.5" y="384.5" width="39" height="39" stroke="#CFD8E0"/>
<defs>
<clipPath id="clip0_226_2187">
<rect width="76" height="40" fill="white" transform="translate(0 256)"/>
</clipPath>
</defs>
</svg>
