<svg width="76" height="424" viewBox="0 0 76 424" fill="none" xmlns="http://www.w3.org/2000/svg">
<rect x="36.5" y="0.5" width="39" height="39" fill="#001333"/>
<path d="M55.7221 26V15.11L53.2831 16.595V14.498L55.7221 13.04H57.6391V26H55.7221Z" fill="white"/>
<rect x="36.5" y="0.5" width="39" height="39" stroke="white"/>
<rect width="40" height="88" transform="translate(36 40)" fill="white"/>
<path d="M56 40L56 128" stroke="#CFD8E0"/>
<rect x="36.5" y="128.5" width="39" height="39" fill="#001333"/>
<path d="M52.1178 153.991L52.1268 152.317L57.7698 147.259C58.2258 146.857 58.5348 146.473 58.6968 146.107C58.8648 145.741 58.9488 145.375 58.9488 145.009C58.9488 144.547 58.8468 144.133 58.6428 143.767C58.4388 143.395 58.1568 143.101 57.7968 142.885C57.4368 142.669 57.0228 142.561 56.5548 142.561C56.0748 142.561 55.6458 142.675 55.2678 142.903C54.8958 143.125 54.6048 143.422 54.3948 143.794C54.1848 144.166 54.0828 144.568 54.0888 145H52.1628C52.1628 144.16 52.3518 143.425 52.7298 142.795C53.1138 142.159 53.6388 141.664 54.3048 141.31C54.9708 140.95 55.7328 140.77 56.5908 140.77C57.4068 140.77 58.1388 140.956 58.7868 141.328C59.4348 141.694 59.9448 142.198 60.3168 142.84C60.6948 143.482 60.8838 144.214 60.8838 145.036C60.8838 145.63 60.8058 146.134 60.6498 146.548C60.4938 146.962 60.2598 147.346 59.9478 147.7C59.6358 148.054 59.2458 148.438 58.7778 148.852L54.4218 152.74L54.2148 152.2H60.8838V153.991H52.1178Z" fill="white"/>
<rect x="36.5" y="128.5" width="39" height="39" stroke="white"/>
<rect width="40" height="88" transform="translate(36 168)" fill="white"/>
<path d="M56 168L56 256" stroke="#CFD8E0"/>
<rect x="36.5" y="256.5" width="39" height="39" fill="#001333"/>
<path d="M56.2366 282.243C55.5946 282.243 54.9916 282.123 54.4276 281.883C53.8636 281.637 53.3746 281.289 52.9606 280.839C52.5526 280.389 52.2556 279.858 52.0696 279.246L53.8876 278.742C54.0616 279.3 54.3646 279.729 54.7966 280.029C55.2286 280.323 55.7086 280.467 56.2366 280.461C56.7106 280.455 57.1276 280.344 57.4876 280.128C57.8476 279.912 58.1296 279.621 58.3336 279.255C58.5376 278.883 58.6396 278.457 58.6396 277.977C58.6396 277.257 58.4146 276.663 57.9646 276.195C57.5206 275.727 56.9386 275.493 56.2186 275.493C56.0146 275.493 55.8046 275.523 55.5886 275.583C55.3786 275.643 55.1806 275.721 54.9946 275.817L54.1126 274.332L58.6846 270.291L58.8826 270.831H52.5826V269.04H60.3766V270.831L56.5786 274.485L56.5606 273.873C57.3766 273.873 58.0846 274.056 58.6846 274.422C59.2846 274.782 59.7466 275.274 60.0706 275.898C60.4006 276.516 60.5656 277.209 60.5656 277.977C60.5656 278.805 60.3706 279.54 59.9806 280.182C59.5966 280.824 59.0776 281.328 58.4236 281.694C57.7756 282.06 57.0466 282.243 56.2366 282.243Z" fill="white"/>
<rect x="36.5" y="256.5" width="39" height="39" stroke="white"/>
<rect width="40" height="88" transform="translate(36 296)" fill="white"/>
<path d="M56 296L56 384" stroke="#CFD8E0"/>
<g clip-path="url(#clip0_303_1736)">
<path d="M0.216 410C0.168 410 0.144 409.964 0.144 409.892C0.144 409.82 0.168 409.784 0.216 409.784C0.612 409.784 0.912 409.748 1.116 409.676C1.332 409.604 1.488 409.484 1.584 409.316C1.692 409.136 1.776 408.866 1.836 408.506L3.312 400.172C3.36 399.86 3.384 399.668 3.384 399.596C3.384 399.344 3.3 399.176 3.132 399.092C2.964 399.008 2.646 398.966 2.178 398.966C2.142 398.966 2.124 398.93 2.124 398.858C2.136 398.786 2.154 398.75 2.178 398.75L3.024 398.768C3.48 398.792 3.84 398.804 4.104 398.804C4.44 398.804 4.848 398.792 5.328 398.768L6.084 398.75C6.132 398.75 6.15 398.786 6.138 398.858C6.138 398.93 6.12 398.966 6.084 398.966C5.712 398.966 5.43 399.002 5.238 399.074C5.058 399.146 4.92 399.272 4.824 399.452C4.728 399.62 4.65 399.884 4.59 400.244L3.132 408.542C3.072 408.902 3.042 409.136 3.042 409.244C3.042 409.424 3.102 409.532 3.222 409.568C3.342 409.604 3.618 409.622 4.05 409.622H6.3C6.708 409.622 6.996 409.598 7.164 409.55C7.332 409.502 7.446 409.412 7.506 409.28C7.566 409.136 7.632 408.866 7.704 408.47L9.18 400.172C9.228 399.86 9.252 399.668 9.252 399.596C9.252 399.344 9.174 399.176 9.018 399.092C8.862 399.008 8.574 398.966 8.154 398.966C8.106 398.966 8.082 398.93 8.082 398.858C8.082 398.786 8.106 398.75 8.154 398.75C9.162 398.786 9.792 398.804 10.044 398.804C10.32 398.804 10.698 398.792 11.178 398.768L11.97 398.75C12.018 398.75 12.042 398.786 12.042 398.858C12.042 398.93 12.018 398.966 11.97 398.966C11.598 398.966 11.316 399.002 11.124 399.074C10.932 399.146 10.788 399.272 10.692 399.452C10.596 399.62 10.518 399.884 10.458 400.244L9 408.56C8.952 408.764 8.928 408.95 8.928 409.118C8.928 409.358 9 409.502 9.144 409.55C9.288 409.598 9.6 409.622 10.08 409.622H12.186C12.606 409.622 12.894 409.604 13.05 409.568C13.206 409.52 13.314 409.43 13.374 409.298C13.446 409.154 13.518 408.878 13.59 408.47L15.03 400.172C15.078 399.944 15.102 399.74 15.102 399.56C15.102 399.32 15.024 399.164 14.868 399.092C14.724 399.008 14.442 398.966 14.022 398.966C13.974 398.966 13.95 398.93 13.95 398.858C13.95 398.786 13.974 398.75 14.022 398.75L14.832 398.768C15.288 398.792 15.666 398.804 15.966 398.804C16.254 398.804 16.638 398.792 17.118 398.768L17.928 398.75C17.976 398.75 18 398.786 18 398.858C18 398.93 17.976 398.966 17.928 398.966C17.532 398.966 17.232 399.002 17.028 399.074C16.824 399.146 16.668 399.272 16.56 399.452C16.464 399.62 16.386 399.884 16.326 400.244L14.85 408.578C14.814 408.794 14.796 408.974 14.796 409.118C14.796 409.394 14.874 409.574 15.03 409.658C15.198 409.742 15.516 409.784 15.984 409.784C16.032 409.784 16.056 409.82 16.056 409.892C16.056 409.964 16.032 410 15.984 410H0.216ZM24.7828 408.614C24.7948 408.602 24.8128 408.596 24.8368 408.596C24.8728 408.596 24.9028 408.62 24.9268 408.668C24.9508 408.704 24.9508 408.734 24.9268 408.758C24.5308 409.226 24.1708 409.58 23.8468 409.82C23.5228 410.048 23.2108 410.162 22.9108 410.162C22.6708 410.162 22.4908 410.09 22.3708 409.946C22.2628 409.802 22.2088 409.574 22.2088 409.262C22.2088 409.07 22.2388 408.782 22.2988 408.398L22.5868 406.688C22.0708 407.78 21.4768 408.644 20.8048 409.28C20.1328 409.916 19.4788 410.234 18.8428 410.234C18.4828 410.234 18.2008 410.126 17.9968 409.91C17.8048 409.682 17.7088 409.34 17.7088 408.884C17.7088 408.776 17.7208 408.602 17.7448 408.362C17.8648 407.534 18.1828 406.688 18.6988 405.824C19.2268 404.948 19.8448 404.228 20.5528 403.664C21.2608 403.1 21.9268 402.818 22.5508 402.818C23.0548 402.818 23.4628 402.98 23.7748 403.304C24.0028 403.112 24.1588 402.902 24.2428 402.674C24.2668 402.65 24.2908 402.638 24.3148 402.638C24.3508 402.638 24.3868 402.65 24.4228 402.674C24.4588 402.686 24.4708 402.698 24.4588 402.71L23.4148 408.398C23.3788 408.578 23.3608 408.74 23.3608 408.884C23.3608 409.22 23.4628 409.388 23.6668 409.388C23.9188 409.388 24.2908 409.13 24.7828 408.614ZM19.6528 409.208C20.0608 409.208 20.4868 408.998 20.9308 408.578C21.3868 408.158 21.7888 407.63 22.1368 406.994C22.4968 406.358 22.7368 405.746 22.8568 405.158C22.8928 404.99 22.9108 404.828 22.9108 404.672C22.9108 404.324 22.8208 404.048 22.6408 403.844C22.4608 403.64 22.2028 403.538 21.8668 403.538C21.4588 403.538 21.0508 403.706 20.6428 404.042C20.2348 404.366 19.8808 404.816 19.5808 405.392C19.2808 405.968 19.0768 406.616 18.9688 407.336C18.9208 407.72 18.8968 407.972 18.8968 408.092C18.8968 408.836 19.1488 409.208 19.6528 409.208ZM27.2762 410.252C26.8322 410.252 26.4542 410.138 26.1422 409.91C25.8302 409.67 25.6742 409.352 25.6742 408.956C25.6742 408.86 25.6802 408.782 25.6922 408.722C25.7762 408.278 25.9922 407.876 26.3402 407.516C26.7002 407.144 27.1502 406.79 27.6902 406.454C28.2542 406.094 28.6562 405.788 28.8962 405.536C29.1482 405.272 29.3042 404.954 29.3642 404.582C29.3762 404.534 29.3822 404.468 29.3822 404.384C29.3822 404.12 29.3042 403.898 29.1482 403.718C28.9922 403.526 28.7522 403.43 28.4282 403.43C28.0802 403.43 27.7442 403.538 27.4202 403.754C27.1082 403.97 26.7962 404.264 26.4842 404.636L26.4482 404.654C26.4122 404.654 26.3762 404.636 26.3402 404.6C26.3042 404.564 26.2922 404.534 26.3042 404.51C26.7242 403.946 27.1862 403.526 27.6902 403.25C28.2062 402.962 28.7342 402.818 29.2742 402.818C29.6462 402.818 29.9702 402.908 30.2462 403.088C30.5342 403.256 30.6782 403.508 30.6782 403.844C30.6782 403.94 30.6722 404.012 30.6602 404.06C30.5882 404.456 30.4022 404.81 30.1022 405.122C29.8022 405.434 29.4002 405.764 28.8962 406.112C28.2962 406.508 27.8402 406.862 27.5282 407.174C27.2162 407.486 27.0182 407.882 26.9342 408.362C26.9222 408.398 26.9162 408.458 26.9162 408.542C26.9162 408.854 27.0242 409.124 27.2402 409.352C27.4682 409.568 27.7682 409.676 28.1402 409.676C28.7162 409.676 29.3462 409.334 30.0302 408.65C30.0422 408.638 30.0602 408.632 30.0842 408.632C30.1202 408.632 30.1502 408.65 30.1742 408.686C30.2102 408.71 30.2222 408.74 30.2102 408.776C29.8262 409.256 29.3702 409.622 28.8422 409.874C28.3142 410.126 27.7922 410.252 27.2762 410.252Z" fill="#5A7794"/>
<rect x="36.5" y="384.5" width="39" height="39" fill="#001333"/>
<path d="M57.8271 410V407.741H51.9771V405.959L56.1891 397.04H58.3401L54.1281 405.959H57.8271V402.449H59.7351V405.959H61.0221V407.741H59.7351V410H57.8271Z" fill="white"/>
<rect x="36.5" y="384.5" width="39" height="39" stroke="white"/>
</g>
<defs>
<clipPath id="clip0_303_1736">
<rect width="76" height="40" fill="white" transform="translate(0 384)"/>
</clipPath>
</defs>
</svg>
