<svg width="45" height="45" viewBox="0 0 45 45" fill="none" xmlns="http://www.w3.org/2000/svg">
<path d="M22.5 28.125C26.3833 28.125 29.5312 24.977 29.5312 21.0938C29.5312 17.2105 26.3833 14.0625 22.5 14.0625C18.6167 14.0625 15.4688 17.2105 15.4688 21.0938C15.4688 24.977 18.6167 28.125 22.5 28.125Z" stroke="#5A7794" stroke-width="1.5" stroke-linecap="round" stroke-linejoin="round"/>
<path d="M36.5625 7.03125H8.4375C7.66085 7.03125 7.03125 7.66085 7.03125 8.4375V36.5625C7.03125 37.3392 7.66085 37.9688 8.4375 37.9688H36.5625C37.3392 37.9688 37.9688 37.3392 37.9688 36.5625V8.4375C37.9688 7.66085 37.3392 7.03125 36.5625 7.03125Z" stroke="#5A7794" stroke-width="1.5" stroke-linecap="round" stroke-linejoin="round"/>
<path d="M10.1575 37.9687C10.7955 35.1724 12.3641 32.6756 14.6064 30.8873C16.8488 29.0989 19.6319 28.125 22.5001 28.125C25.3683 28.125 28.1514 29.0989 30.3937 30.8873C32.6361 32.6756 34.2047 35.1724 34.8427 37.9687" stroke="#5A7794" stroke-width="1.5" stroke-linecap="round" stroke-linejoin="round"/>
</svg>
